<?xml version="1.0" standalone="no"?>
<!DOCTYPE svg PUBLIC "-//W3C//DTD SVG 20010904//EN"
 "http://www.w3.org/TR/2001/REC-SVG-20010904/DTD/svg10.dtd">
<svg version="1.0" xmlns="http://www.w3.org/2000/svg"
 width="700.000000pt" height="700.000000pt" viewBox="0 0 700.000000 700.000000"
 preserveAspectRatio="xMidYMid meet">
<metadata>
Created by potrace 1.11, written by Peter Selinger 2001-2013
</metadata>
<g transform="translate(0.000000,700.000000) scale(0.100000,-0.100000)"
fill="#000000" stroke="none">
<path d="M3186 6739 c-521 -50 -1035 -233 -1476 -524 -827 -546 -1358 -1432
-1450 -2420 -13 -141 -13 -449 0 -590 50 -539 229 -1046 525 -1495 546 -827
1432 -1358 2420 -1450 141 -13 449 -13 590 0 539 50 1046 229 1495 525 827
546 1358 1432 1450 2420 13 141 13 449 0 590 -50 539 -229 1046 -525 1495
-546 827 -1432 1358 -2420 1450 -128 12 -480 11 -609 -1z m681 -2467 c552
-399 1008 -733 1013 -742 28 -51 43 -39 -1016 -804 -786 -568 -1015 -729
-1038 -729 -18 0 -36 8 -48 22 -17 22 -18 79 -18 1478 0 1010 3 1460 11 1474
13 24 47 39 73 32 10 -3 471 -332 1023 -731z"/>
<path d="M2900 3500 c0 -710 2 -1290 6 -1290 10 0 1779 1282 1779 1290 0 8
-1769 1290 -1779 1290 -4 0 -6 -580 -6 -1290z"/>
</g>
</svg>
