<svg xmlns="http://www.w3.org/2000/svg" width="24" height="24" style=""><rect id="backgroundrect" width="100%" height="100%" x="0" y="0" fill="none" stroke="none"/>
    
    
<g class="currentLayer" style=""><title>Layer 1</title><path d="M19,8 l-4,4 h3 c0,3.309999942779541 -2.690000057220459,6 -6,6 c-1.0099999904632568,0 -1.9700000286102295,-0.25 -2.799999952316284,-0.699999988079071 l-1.4600000381469727,1.4600000381469727 C8.970000267028809,19.540000915527344 10.430000305175781,20 12,20 c4.420000076293945,0 8,-3.5799999237060547 8,-8 h3 l-4,-4 zM6,12 c0,-3.309999942779541 2.690000057220459,-6 6,-6 c1.0099999904632568,0 1.9700000286102295,0.25 2.799999952316284,0.699999988079071 l1.4600000381469727,-1.4600000381469727 C15.029999732971191,4.460000038146973 13.569999694824219,4 12,4 c-4.420000076293945,0 -8,3.5799999237060547 -8,8 H1 l4,4 l4,-4 H6 z" id="svg_1" class="" fill="#ffffff" fill-opacity="1"/></g></svg>